<?xml version="1.0" standalone="no"?>
<!DOCTYPE svg PUBLIC "-//W3C//DTD SVG 20010904//EN"
 "http://www.w3.org/TR/2001/REC-SVG-20010904/DTD/svg10.dtd">
<svg version="1.0" xmlns="http://www.w3.org/2000/svg"
 width="16.000000pt" height="16.000000pt" viewBox="0 0 16.000000 16.000000"
 preserveAspectRatio="xMidYMid meet">
<metadata>
Created by potrace 1.11, written by Peter Selinger 2001-2013
</metadata>
<g transform="translate(0.000000,16.000000) scale(0.001747,-0.001747)"
fill="#000000" stroke="none">
<path d="M4740 7206 c-19 -12 -1004 -573 -2187 -1246 l-2153 -1223 0 -379 0
-378 -200 0 -200 0 0 -1010 0 -1010 200 0 200 0 2 1012 3 1012 2185 1243
c1202 683 2190 1243 2195 1243 6 0 357 -198 780 -441 424 -242 782 -447 798
-455 l27 -15 0 378 -1 378 -796 455 c-437 250 -800 456 -807 457 -6 1 -27 -8
-46 -21z"/>
<path d="M4755 6119 c-5 -6 -365 -214 -800 -463 l-790 -452 -3 -377 c-1 -207
0 -377 2 -377 2 0 365 207 806 459 l802 459 56 -33 c184 -106 4304 -2446 4317
-2451 13 -5 15 36 15 369 l0 375 -2177 1238 c-1198 680 -2185 1243 -2194 1251
-18 15 -21 15 -34 2z"/>
<path d="M1140 4000 c-163 -26 -317 -136 -391 -281 -29 -59 -66 -195 -78 -294
-14 -114 -14 -792 -1 -905 25 -203 78 -325 184 -428 115 -112 217 -152 388
-152 175 0 284 39 394 142 52 49 74 80 109 152 42 87 75 209 75 276 l0 30
-199 0 -200 0 -6 -47 c-17 -133 -72 -193 -174 -193 -81 0 -139 72 -162 200
-16 97 -24 659 -10 820 22 258 57 320 181 320 95 0 147 -57 157 -172 l6 -58
204 0 205 0 -7 53 c-35 279 -175 463 -396 523 -69 18 -208 25 -279 14z"/>
<path d="M5585 4004 c-117 -18 -218 -66 -297 -142 -104 -99 -151 -198 -185
-388 -26 -146 -26 -864 0 -1004 35 -188 80 -286 176 -380 110 -108 222 -150
396 -150 176 0 287 43 401 155 156 154 194 325 194 879 0 544 -36 711 -185
866 -70 72 -144 118 -234 144 -55 16 -213 28 -266 20z m176 -387 c72 -48 94
-151 104 -498 8 -245 -6 -568 -28 -660 -26 -107 -78 -159 -160 -159 -88 0
-134 46 -164 166 -16 60 -18 121 -18 494 0 448 6 523 46 602 27 52 71 78 135
78 36 0 61 -6 85 -23z"/>
<path d="M1910 3973 c0 -4 92 -289 205 -634 l205 -628 0 -375 0 -376 200 0
200 0 0 381 0 380 201 617 c111 339 204 623 207 630 3 10 -42 12 -218 10
l-223 -3 -81 -347 c-45 -191 -84 -349 -87 -352 -3 -3 -27 88 -53 202 -27 114
-64 273 -83 355 l-35 147 -219 0 c-120 0 -219 -3 -219 -7z"/>
<path d="M3290 2970 l0 -1010 200 0 200 0 0 1010 0 1010 -200 0 -200 0 0
-1010z"/>
<path d="M3970 3800 l0 -180 251 0 c235 0 251 -1 244 -17 -3 -10 -123 -315
-266 -679 l-259 -660 0 -152 0 -152 475 0 475 0 0 180 0 180 -266 0 c-230 0
-265 2 -261 15 4 8 123 313 267 678 l260 663 0 152 0 152 -460 0 -460 0 0
-180z"/>
<path d="M6520 2970 l0 -1010 470 0 470 0 0 180 0 180 -265 0 -265 0 0 830 0
830 -205 0 -205 0 0 -1010z"/>
</g>
</svg>
